<svg xmlns="http://www.w3.org/2000/svg" viewBox="0 0 128 128"><path d="M123.046 53.214h-.973v2.598h-.785v-2.598h-.975v-.622h2.733zm4.115 2.57h-.703v-2.597h-.028l-.92 2.598h-.433l-.92-2.598h-.028v2.598h-.677v-3.193h1.138l.73 1.894.731-1.894h1.137zm-42.549-4.221h-4.79c.08.46.324.894.703 1.164a1.922 1.922 0 0 0 2.22.054c.325-.19.595-.514.73-.866h1.056a3.404 3.404 0 0 1-1.272 1.678 2.928 2.928 0 0 1-1.624.487c-.731 0-1.434-.27-1.95-.812a2.94 2.94 0 0 1-.865-2.165c-.027-1.597 1.273-2.923 2.869-2.95.731 0 1.461.27 2.003.757a2.899 2.899 0 0 1 .947 2.328zm-1.028-.948a1.917 1.917 0 0 0-.704-1.028 1.794 1.794 0 0 0-1.164-.406 1.796 1.796 0 0 0-1.353.541 1.988 1.988 0 0 0-.515.893zM77.927 54h-1.029v-3.248a1.58 1.58 0 0 0-.406-1.082 1.61 1.61 0 0 0-2.137-.028 1.346 1.346 0 0 0-.407 1.029v3.329H72.92V46.42h1.03v2.355c.406-.406.919-.596 1.487-.596.624 0 1.246.244 1.706.677.515.487.812 1.164.785 1.868zm-5.873-1.895a4.274 4.274 0 0 1-1.137 1.462 2.72 2.72 0 0 1-1.76.541 2.999 2.999 0 0 1-2.083-.838c-.623-.542-.948-1.354-.948-2.166h.054l-.027.054a2.848 2.848 0 0 1 .92-2.192 2.741 2.741 0 0 1 1.95-.785c.649 0 1.298.189 1.84.541a3.303 3.303 0 0 1 1.163 1.49H70.89a2.004 2.004 0 0 0-1.84-1.03c-.516 0-1.003.19-1.327.569a2.014 2.014 0 0 0-.541 1.38c-.027.514.189 1.029.567 1.407.353.38.867.57 1.381.57.352 0 .704-.082 1.029-.272.325-.162.568-.406.757-.73zm-6.794 1.869h-.974v-.705a2.635 2.635 0 0 1-2.003.812 2.818 2.818 0 0 1-2.03-.785 2.765 2.765 0 0 1-.893-2.138 2.795 2.795 0 0 1 .947-2.192c.568-.515 1.3-.812 2.057-.785a2.454 2.454 0 0 1 1.95.838v-.703h.973v5.657zm-.974-2.788a2.08 2.08 0 0 0-.542-1.408 1.724 1.724 0 0 0-1.353-.569 2.09 2.09 0 0 0-1.462.596c-.351.297-.541.758-.568 1.217 0 .542.161 1.056.515 1.462.351.406.865.65 1.407.623.514 0 1.028-.19 1.407-.569.379-.351.596-.838.596-1.353zm-5.82-.164a3.11 3.11 0 0 1-.811 2.192 2.86 2.86 0 0 1-2.166.894c-.731.027-1.434-.243-1.922-.785v2.545h-1.029v-7.58h.975v.678a2.456 2.456 0 0 1 1.868-.785c.757 0 1.515.27 2.084.785a2.465 2.465 0 0 1 1 2.056zm-1.056.136c0-.515-.189-1.029-.568-1.38a1.94 1.94 0 0 0-1.408-.569 1.759 1.759 0 0 0-1.407.622c-.325.38-.515.867-.515 1.354 0 .46.164.92.434 1.273.38.432.947.676 1.543.65.514.025 1-.19 1.38-.57.352-.378.568-.866.541-1.38zm-5.98 2.815h-.975v-.704a2.635 2.635 0 0 1-2.003.812 2.818 2.818 0 0 1-2.03-.785 2.765 2.765 0 0 1-.894-2.138 2.795 2.795 0 0 1 .948-2.192c.568-.515 1.299-.812 2.056-.785a2.454 2.454 0 0 1 1.95.838v-.703h.974v5.657zm-1.003-2.788a2.08 2.08 0 0 0-.541-1.407 1.724 1.724 0 0 0-1.354-.569c-.541 0-1.055.216-1.434.596-.352.297-.541.758-.569 1.217 0 .542.163 1.056.515 1.462.352.406.839.65 1.38.623.515 0 1.002-.19 1.381-.569.406-.351.622-.838.622-1.353zm38.191 2.463h3.194c1.65 0 3.004 1.354 3.004 3.03v1.87h-6.225Zm-52.915-4.872h3.194c1.652 0 3.004 1.353 3.004 3.031V81.2h-6.224zM123.21 73.92h4.44c-.65 2.49-1.896 4.384-3.736 5.684-1.84 1.354-4.141 2.03-6.93 2.03-3.383 0-6.008-1.082-7.902-3.275-1.895-2.139-2.843-5.17-2.843-9.149 0-3.789.92-6.74 2.76-8.878 1.896-2.192 4.521-3.274 7.905-3.274 3.545 0 6.306 1.055 8.255 3.194 1.894 2.191 2.842 5.25 2.842 9.148v.974c0 .217-.027.434-.08.623h-15.348c.054 1.84.515 3.194 1.326 4.087.758.947 1.922 1.407 3.465 1.407a5.024 5.024 0 0 0 2.571-.622 1.13 1.13 0 0 0 .487-.298l.487-.487a1.697 1.697 0 0 1 .677-.704 2.528 2.528 0 0 1 1.624-.46zm-10.636-6.93h9.066c-.108-1.596-.541-2.787-1.245-3.545-.758-.839-1.868-1.245-3.275-1.245a4.26 4.26 0 0 0-3.194 1.245c-.865.839-1.299 2.003-1.353 3.546zm-6.307 14.211c-2.111.108-4.25.08-6.361-.08-2.273-.19-3.41-1.625-3.41-4.36V53.648h3.194c.785 0 1.515.325 2.03.893a2.879 2.879 0 0 1 .866 2.139v.838h3.653v1.246a2.862 2.862 0 0 1-.893 2.165c-.568.542-1.326.866-2.138.839h-.596v13.29c0 1.002.596 1.515 1.787 1.515h1.868zM88.618 59.628h6.225v21.574h-6.225zm-1.515 21.573H83.99c-1.597.08-2.95-1.164-3.031-2.76V66.097c0-1.408-.434-2.464-1.3-3.113-.812-.65-1.84-.974-2.896-.974a4.52 4.52 0 0 0-2.842.974c-.838.65-1.245 1.678-1.245 3.113v15.103H66.45V67.342c0-4.032 1.055-6.712 3.14-8.065a13.912 13.912 0 0 1 6.983-2.22c2.544-.027 5.034.705 7.2 2.03 2.192 1.354 3.274 4.115 3.274 8.255zm-27.69-1.434V78.25a6.822 6.822 0 0 1-4.303 3.114c-1.787.405-3.68.27-5.36-.435-1.785-.703-3.302-2.029-4.573-3.95-1.273-1.922-1.922-4.44-1.922-7.579 0-3.68.838-6.659 2.544-8.932 1.678-2.273 4.384-3.41 8.12-3.41 2.815 0 5.549.784 7.903 2.3 2.437 1.516 3.655 4.358 3.655 8.526v12.505c0 4.141-1.218 6.983-3.628 8.472a14.832 14.832 0 0 1-7.903 2.272c-5.44 0-8.824-2.543-10.123-7.632h6.469a4.992 4.992 0 0 0 5.116 2.274c.974-.216 1.867-.785 2.653-1.733.757-.947 1.217-2.381 1.353-4.275zM49.291 69.563c0 4.086 1.19 6.333 3.545 6.793 2.355.46 4.115-.109 5.25-1.651.542-.65.921-1.679 1.166-3.059.242-1.353.242-2.76.053-4.114a8.36 8.36 0 0 0-1.462-3.626c-.757-1.056-1.895-1.598-3.383-1.598-2.002 0-3.383.731-4.086 2.22a11.165 11.165 0 0 0-1.083 5.035zm-21.167-12.29c-8.065-8.444-10.312-13.668-6.847-20.407 0 0-24.063 9.256-.298 25.687 8.499 5.872 7.09 11.881 7.09 12.098 1.328-1.38 8.122-8.932.055-17.377zM2.141 67.993S-4.572 78.17 8.636 80.254c1.3.161 10.881 1.163 13.344 4.303 0 0-.216-5.414-8.01-8.606-7.796-3.195-10.963-4.007-11.829-7.96Zm6.551-21.923s-18.813 11.475-1.084 22.87c3.41 2.22 15.78 8.391 15.428 14.101 0 0 7.497-11.096-3.464-18.08C8.312 57.79 5.497 50.184 8.69 46.07Z"/></svg>
