<svg xmlns="http://www.w3.org/2000/svg" viewBox="0 0 128 128"><path fill="#ed1c24" d="M96.532 54.775C74.884 32.11 68.855 18.088 78.153 0c0 0-64.582 24.844-.8 68.942 22.811 15.762 19.033 31.89 19.033 32.471 3.561-3.704 21.797-23.972.146-46.638zM26.795 83.54s-18.017 27.317 17.432 32.91c3.489.434 29.204 3.123 35.813 11.549 0 0-.58-14.528-21.499-23.098-20.923-8.576-29.423-10.753-31.746-21.36ZM44.377 24.7s-50.494 30.801-2.91 61.384c9.152 5.96 42.352 22.521 41.409 37.846 0 0 20.12-29.78-9.298-48.525C43.358 56.157 35.8 35.742 44.374 24.7Z"/></svg>
