<svg xmlns="http://www.w3.org/2000/svg" viewBox="0 0 128 128"><path fill="#ed1c24" d="M28.124 57.274c-8.065-8.444-10.312-13.668-6.847-20.408 0 0-24.063 9.257-.298 25.687 8.499 5.873 7.09 11.882 7.09 12.098 1.328-1.38 8.122-8.931.055-17.377zM2.142 67.992S-4.572 78.17 8.636 80.254c1.3.162 10.881 1.164 13.344 4.303 0 0-.216-5.413-8.01-8.606-7.796-3.195-10.963-4.006-11.828-7.959Zm6.55-21.923s-18.813 11.476-1.084 22.87c3.41 2.221 15.78 8.392 15.428 14.102 0 0 7.497-11.096-3.464-18.08C8.312 57.79 5.497 50.183 8.69 46.07Z"/><path d="M123.046 53.215h-.973v2.598h-.785v-2.598h-.975v-.623h2.733zm4.115 2.57h-.703v-2.598h-.028l-.92 2.598h-.433l-.92-2.598h-.028v2.598h-.677v-3.193h1.138l.73 1.894.731-1.894h1.137zm-42.549-4.222h-4.79c.08.46.325.894.703 1.165a1.923 1.923 0 0 0 2.22.053c.325-.189.595-.514.73-.865h1.056a3.405 3.405 0 0 1-1.272 1.677 2.928 2.928 0 0 1-1.624.487c-.73 0-1.434-.27-1.95-.812a2.94 2.94 0 0 1-.865-2.164c-.027-1.597 1.273-2.924 2.869-2.951.731 0 1.462.27 2.003.758a2.899 2.899 0 0 1 .947 2.328zm-1.028-.947a1.917 1.917 0 0 0-.704-1.029 1.794 1.794 0 0 0-1.164-.406 1.796 1.796 0 0 0-1.353.542 1.988 1.988 0 0 0-.514.893zm-5.657 3.383h-1.029v-3.248a1.58 1.58 0 0 0-.406-1.082 1.61 1.61 0 0 0-2.137-.027 1.346 1.346 0 0 0-.406 1.028V54h-1.03v-7.58h1.03v2.355c.406-.406.919-.596 1.487-.596.624 0 1.246.245 1.706.677.515.488.812 1.165.785 1.869zm-5.873-1.894a4.274 4.274 0 0 1-1.137 1.461 2.72 2.72 0 0 1-1.76.542 2.999 2.999 0 0 1-2.083-.839c-.623-.541-.948-1.353-.948-2.165h.054l-.027.053a2.848 2.848 0 0 1 .92-2.192 2.741 2.741 0 0 1 1.95-.785c.649 0 1.298.19 1.84.542a3.303 3.303 0 0 1 1.163 1.489H70.89a2.004 2.004 0 0 0-1.84-1.03c-.516 0-1.002.19-1.327.569a2.014 2.014 0 0 0-.541 1.38c-.027.515.189 1.03.568 1.408.352.379.866.569 1.38.569.352 0 .704-.081 1.029-.271.325-.163.568-.406.757-.731zm-6.794 1.868h-.974v-.705a2.635 2.635 0 0 1-2.003.812 2.818 2.818 0 0 1-2.03-.785 2.765 2.765 0 0 1-.893-2.138 2.795 2.795 0 0 1 .947-2.192c.568-.515 1.3-.812 2.057-.785a2.454 2.454 0 0 1 1.95.839v-.703h.973v5.656zm-.974-2.788a2.08 2.08 0 0 0-.542-1.408 1.724 1.724 0 0 0-1.353-.568 2.09 2.09 0 0 0-1.462.596c-.351.297-.541.757-.568 1.217 0 .541.161 1.055.515 1.461.351.406.865.65 1.407.624.514 0 1.028-.19 1.407-.57.379-.35.596-.837.596-1.353zm-5.82-.163a3.11 3.11 0 0 1-.811 2.192 2.86 2.86 0 0 1-2.166.894c-.731.027-1.434-.244-1.922-.785v2.544h-1.029v-7.579h.975v.677a2.456 2.456 0 0 1 1.868-.785c.757 0 1.515.271 2.084.785a2.465 2.465 0 0 1 1 2.057zm-1.056.135c0-.514-.189-1.028-.568-1.38a1.94 1.94 0 0 0-1.408-.568 1.759 1.759 0 0 0-1.407.622c-.325.38-.515.866-.515 1.353 0 .461.164.92.435 1.273.378.432.946.677 1.542.65.514.026 1.001-.19 1.38-.57.352-.378.568-.866.541-1.38zm-5.98 2.815h-.975v-.704a2.635 2.635 0 0 1-2.003.812 2.818 2.818 0 0 1-2.03-.785 2.765 2.765 0 0 1-.894-2.138 2.795 2.795 0 0 1 .948-2.192c.569-.515 1.299-.812 2.056-.785a2.454 2.454 0 0 1 1.95.839v-.703h.974v5.656zm-1.003-2.788a2.08 2.08 0 0 0-.541-1.407 1.724 1.724 0 0 0-1.354-.568c-.541 0-1.055.216-1.434.596-.351.297-.541.757-.569 1.217 0 .541.163 1.055.516 1.461.351.406.838.65 1.38.624.514 0 1.001-.19 1.38-.57.406-.35.622-.837.622-1.353zm38.191 2.464h3.194c1.65 0 3.004 1.354 3.004 3.03v1.869h-6.225zm-52.915-4.873h3.194c1.652 0 3.004 1.354 3.004 3.032V81.2h-6.224zm87.506 25.146h4.44c-.65 2.49-1.895 4.384-3.736 5.684-1.84 1.353-4.141 2.03-6.93 2.03-3.383 0-6.008-1.083-7.902-3.276-1.895-2.138-2.843-5.17-2.843-9.148 0-3.79.92-6.74 2.761-8.878 1.895-2.192 4.52-3.275 7.904-3.275 3.545 0 6.306 1.056 8.255 3.194 1.895 2.192 2.842 5.25 2.842 9.148v.974c0 .217-.027.435-.08.623h-15.348c.054 1.84.515 3.194 1.326 4.087.758.948 1.922 1.407 3.465 1.407a5.024 5.024 0 0 0 2.571-.622 1.13 1.13 0 0 0 .487-.298l.487-.487a1.697 1.697 0 0 1 .677-.704 2.528 2.528 0 0 1 1.624-.46zm-10.636-6.93h9.066c-.108-1.597-.541-2.787-1.245-3.545-.758-.84-1.868-1.245-3.275-1.245a4.26 4.26 0 0 0-3.194 1.245c-.865.838-1.299 2.003-1.353 3.545zm-6.307 14.21c-2.111.109-4.25.081-6.36-.08-2.274-.19-3.411-1.625-3.411-4.359V53.648h3.194c.785 0 1.515.324 2.03.893a2.879 2.879 0 0 1 .866 2.138v.839h3.653v1.245a2.862 2.862 0 0 1-.893 2.166c-.568.541-1.326.865-2.138.838h-.596v13.29c0 1.002.596 1.515 1.787 1.515h1.868zM88.618 59.63h6.225v21.574h-6.225zM87.103 81.2H83.99c-1.597.081-2.95-1.163-3.031-2.76V66.098c0-1.408-.434-2.463-1.3-3.113-.811-.65-1.84-.973-2.896-.973a4.52 4.52 0 0 0-2.842.973c-.838.65-1.245 1.678-1.245 3.113v15.103H66.45V67.343c0-4.032 1.055-6.712 3.14-8.066a13.912 13.912 0 0 1 6.983-2.219c2.544-.027 5.034.704 7.2 2.03 2.192 1.354 3.275 4.115 3.275 8.255zm-27.69-1.434v-1.516a6.822 6.822 0 0 1-4.303 3.113c-1.787.405-3.68.27-5.36-.434-1.785-.703-3.301-2.03-4.573-3.95-1.273-1.923-1.922-4.44-1.922-7.58 0-3.68.838-6.658 2.544-8.932 1.678-2.273 4.384-3.41 8.12-3.41 2.815 0 5.549.785 7.903 2.301 2.437 1.515 3.655 4.358 3.655 8.525V80.39c0 4.142-1.218 6.983-3.627 8.472a14.832 14.832 0 0 1-7.903 2.273c-5.44 0-8.825-2.544-10.124-7.633h6.469a4.992 4.992 0 0 0 5.116 2.274c.974-.216 1.867-.785 2.653-1.732.757-.948 1.217-2.382 1.353-4.276zM49.291 69.563c0 4.087 1.19 6.333 3.545 6.793 2.355.46 4.115-.108 5.25-1.65.542-.65.921-1.68 1.166-3.059.242-1.354.242-2.76.053-4.114a8.36 8.36 0 0 0-1.462-3.626c-.757-1.057-1.894-1.598-3.383-1.598-2.002 0-3.383.73-4.086 2.22a11.165 11.165 0 0 0-1.083 5.034z"/></svg>
